<svg width="872" height="188" viewBox="0 0 872 188" fill="none" xmlns="http://www.w3.org/2000/svg">
<path d="M120.744 52.5735C120.744 49.1968 118.784 46.1469 114.862 43.4237C111.05 40.7006 106.693 39.339 101.791 39.339H32.6777V105.021H101.791C107.128 105.021 111.594 103.714 115.189 101.1C118.892 98.3767 120.744 95.2179 120.744 91.6234V52.5735ZM153.749 52.9003V105.021C153.749 112.428 150.426 118.637 143.782 123.648C137.137 128.549 129.458 131 120.744 131H0V13.3602H120.581C130.057 13.3602 137.954 15.92 144.272 21.0395C150.59 26.159 153.749 32.4222 153.749 39.8292V52.9003ZM216.994 112.864L206.537 131H169.285L231.209 13.687H281.369L346.398 131H307.511L297.545 112.864H216.994ZM282.186 84.761L257.514 39.1756L232.026 84.761H282.186ZM318.321 13.3602H462.102V39.339H405.407V131H375.016V39.339H318.321V13.3602ZM479.635 13.3602H512.313V91.6234C512.313 95.7625 514.11 99.0303 517.704 101.427C521.408 103.823 526.037 105.021 531.592 105.021H589.432C594.769 105.021 599.235 103.714 602.83 101.1C606.424 98.3767 608.222 95.2179 608.222 91.6234V13.3602H641.226V105.021C641.226 112.428 637.904 118.637 631.259 123.648C624.615 128.549 616.936 131 608.222 131H512.313C502.945 131 495.157 128.495 488.948 123.484C482.739 118.474 479.635 112.319 479.635 105.021V13.3602ZM758.046 92.4403L793.829 13.3602H856.08V131H824.219V43.4237C824.219 42.1166 823.238 41.4631 821.278 41.4631C819.644 41.4631 818.391 42.1166 817.52 43.4237L776.999 131H740.237L694.978 41.2997C694.434 40.4283 693.562 39.9926 692.364 39.9926C690.404 39.9926 689.314 40.4283 689.096 41.2997V131H656.745V13.3602H717.526L758.046 92.4403Z" fill="white"/>
<path d="M345.056 178V167.034L345.773 168.974L333.247 148.477H336.579L347.587 166.486H345.816L356.824 148.477H359.945L347.418 168.974L348.135 167.034V178H345.056ZM370.666 178.211C368.529 178.211 366.603 177.733 364.888 176.777C363.2 175.793 361.865 174.457 360.881 172.77C359.897 171.055 359.405 169.101 359.405 166.908C359.405 164.686 359.897 162.732 360.881 161.045C361.865 159.358 363.2 158.037 364.888 157.081C366.575 156.125 368.501 155.647 370.666 155.647C372.859 155.647 374.799 156.125 376.486 157.081C378.201 158.037 379.537 159.358 380.493 161.045C381.477 162.732 381.969 164.686 381.969 166.908C381.969 169.101 381.477 171.055 380.493 172.77C379.537 174.457 378.201 175.793 376.486 176.777C374.771 177.733 372.831 178.211 370.666 178.211ZM370.666 175.554C372.268 175.554 373.688 175.202 374.925 174.499C376.163 173.768 377.133 172.756 377.836 171.463C378.567 170.141 378.932 168.623 378.932 166.908C378.932 165.164 378.567 163.646 377.836 162.353C377.133 161.059 376.163 160.061 374.925 159.358C373.688 158.627 372.282 158.262 370.708 158.262C369.133 158.262 367.727 158.627 366.49 159.358C365.253 160.061 364.269 161.059 363.538 162.353C362.807 163.646 362.441 165.164 362.441 166.908C362.441 168.623 362.807 170.141 363.538 171.463C364.269 172.756 365.253 173.768 366.49 174.499C367.727 175.202 369.119 175.554 370.666 175.554ZM397.235 178.211C395.351 178.211 393.706 177.859 392.3 177.156C390.894 176.454 389.798 175.399 389.01 173.993C388.251 172.587 387.872 170.83 387.872 168.721V155.857H390.866V168.384C390.866 170.746 391.443 172.531 392.595 173.74C393.776 174.921 395.421 175.512 397.53 175.512C399.076 175.512 400.412 175.202 401.537 174.584C402.69 173.937 403.561 173.009 404.152 171.8C404.77 170.591 405.08 169.143 405.08 167.456V155.857H408.074V178H405.206V171.927L405.67 173.023C404.967 174.654 403.87 175.933 402.38 176.861C400.918 177.761 399.203 178.211 397.235 178.211ZM416.42 178V155.857H419.288V161.889L418.992 160.834C419.611 159.147 420.651 157.868 422.113 156.996C423.576 156.096 425.389 155.647 427.554 155.647V158.557C427.442 158.557 427.329 158.557 427.217 158.557C427.104 158.529 426.992 158.515 426.879 158.515C424.546 158.515 422.718 159.232 421.396 160.666C420.075 162.071 419.414 164.082 419.414 166.697V178H416.42ZM444.928 178V148.477H457.37C460.519 148.477 463.288 149.095 465.678 150.332C468.096 151.57 469.966 153.299 471.288 155.52C472.637 157.741 473.312 160.314 473.312 163.238C473.312 166.163 472.637 168.735 471.288 170.957C469.966 173.178 468.096 174.907 465.678 176.144C463.288 177.381 460.519 178 457.37 178H444.928ZM449.145 174.331H457.116C459.563 174.331 461.671 173.867 463.443 172.939C465.242 172.011 466.634 170.718 467.618 169.059C468.602 167.372 469.095 165.431 469.095 163.238C469.095 161.017 468.602 159.077 467.618 157.418C466.634 155.759 465.242 154.466 463.443 153.538C461.671 152.61 459.563 152.146 457.116 152.146H449.145V174.331ZM493.058 178V173.276L492.847 172.391V164.335C492.847 162.62 492.341 161.298 491.329 160.37C490.345 159.414 488.854 158.936 486.858 158.936C485.536 158.936 484.243 159.161 482.978 159.611C481.712 160.033 480.644 160.609 479.772 161.34L478.085 158.304C479.238 157.376 480.616 156.673 482.219 156.195C483.849 155.689 485.55 155.436 487.322 155.436C490.387 155.436 492.749 156.181 494.408 157.671C496.066 159.161 496.896 161.439 496.896 164.504V178H493.058ZM485.719 178.253C484.06 178.253 482.598 177.972 481.333 177.41C480.096 176.847 479.14 176.074 478.465 175.09C477.79 174.078 477.453 172.939 477.453 171.674C477.453 170.465 477.734 169.368 478.296 168.384C478.887 167.4 479.829 166.612 481.122 166.022C482.444 165.431 484.215 165.136 486.436 165.136H493.522V168.046H486.605C484.58 168.046 483.217 168.384 482.514 169.059C481.811 169.733 481.459 170.549 481.459 171.505C481.459 172.601 481.895 173.487 482.767 174.162C483.639 174.809 484.848 175.132 486.394 175.132C487.912 175.132 489.234 174.795 490.359 174.12C491.511 173.445 492.341 172.461 492.847 171.167L493.648 173.951C493.114 175.273 492.172 176.327 490.823 177.114C489.473 177.873 487.772 178.253 485.719 178.253ZM512.065 178.253C509.815 178.253 508.072 177.649 506.835 176.439C505.598 175.23 504.979 173.501 504.979 171.252V150.754H509.028V171.083C509.028 172.292 509.323 173.22 509.914 173.867C510.532 174.513 511.404 174.837 512.529 174.837C513.794 174.837 514.849 174.485 515.692 173.782L516.957 176.693C516.339 177.227 515.594 177.62 514.722 177.873C513.878 178.127 512.993 178.253 512.065 178.253ZM501.183 158.979V155.647H515.439V158.979H501.183ZM535.728 178V173.276L535.518 172.391V164.335C535.518 162.62 535.011 161.298 533.999 160.37C533.015 159.414 531.525 158.936 529.528 158.936C528.207 158.936 526.914 159.161 525.648 159.611C524.383 160.033 523.315 160.609 522.443 161.34L520.756 158.304C521.909 157.376 523.286 156.673 524.889 156.195C526.52 155.689 528.221 155.436 529.992 155.436C533.057 155.436 535.419 156.181 537.078 157.671C538.737 159.161 539.566 161.439 539.566 164.504V178H535.728ZM528.39 178.253C526.731 178.253 525.269 177.972 524.003 177.41C522.766 176.847 521.81 176.074 521.135 175.09C520.461 174.078 520.123 172.939 520.123 171.674C520.123 170.465 520.404 169.368 520.967 168.384C521.557 167.4 522.499 166.612 523.793 166.022C525.114 165.431 526.885 165.136 529.107 165.136H536.192V168.046H529.275C527.251 168.046 525.887 168.384 525.184 169.059C524.481 169.733 524.13 170.549 524.13 171.505C524.13 172.601 524.566 173.487 525.437 174.162C526.309 174.809 527.518 175.132 529.065 175.132C530.583 175.132 531.904 174.795 533.029 174.12C534.182 173.445 535.011 172.461 535.518 171.167L536.319 173.951C535.785 175.273 534.843 176.327 533.493 177.114C532.143 177.873 530.442 178.253 528.39 178.253ZM545.457 184.242L547.565 175.722L548.114 178.169C547.298 178.169 546.609 177.916 546.047 177.41C545.513 176.903 545.246 176.215 545.246 175.343C545.246 174.499 545.513 173.81 546.047 173.276C546.609 172.742 547.284 172.475 548.072 172.475C548.887 172.475 549.548 172.756 550.054 173.318C550.56 173.853 550.813 174.527 550.813 175.343C550.813 175.624 550.785 175.905 550.729 176.186C550.701 176.439 550.63 176.749 550.518 177.114C550.433 177.452 550.293 177.873 550.096 178.38L548.114 184.242H545.457ZM581.817 178.253C579.596 178.253 577.53 177.888 575.618 177.156C573.734 176.397 572.089 175.343 570.683 173.993C569.305 172.615 568.223 171.027 567.435 169.227C566.676 167.4 566.297 165.403 566.297 163.238C566.297 161.073 566.676 159.091 567.435 157.291C568.223 155.464 569.305 153.875 570.683 152.526C572.089 151.148 573.734 150.093 575.618 149.362C577.501 148.603 579.568 148.224 581.817 148.224C584.039 148.224 586.091 148.603 587.975 149.362C589.859 150.093 591.49 151.134 592.868 152.483C594.274 153.833 595.356 155.422 596.115 157.249C596.903 159.077 597.296 161.073 597.296 163.238C597.296 165.403 596.903 167.4 596.115 169.227C595.356 171.055 594.274 172.644 592.868 173.993C591.49 175.343 589.859 176.397 587.975 177.156C586.091 177.888 584.039 178.253 581.817 178.253ZM581.817 175.469C583.589 175.469 585.22 175.174 586.71 174.584C588.228 173.965 589.536 173.108 590.632 172.011C591.757 170.886 592.629 169.593 593.247 168.131C593.866 166.641 594.175 165.01 594.175 163.238C594.175 161.467 593.866 159.85 593.247 158.388C592.629 156.898 591.757 155.604 590.632 154.508C589.536 153.383 588.228 152.526 586.71 151.935C585.22 151.316 583.589 151.007 581.817 151.007C580.046 151.007 578.401 151.316 576.883 151.935C575.364 152.526 574.043 153.383 572.918 154.508C571.822 155.604 570.95 156.898 570.303 158.388C569.685 159.85 569.375 161.467 569.375 163.238C569.375 164.982 569.685 166.598 570.303 168.089C570.95 169.579 571.822 170.886 572.918 172.011C574.043 173.108 575.364 173.965 576.883 174.584C578.401 175.174 580.046 175.469 581.817 175.469ZM612.811 178.211C610.928 178.211 609.283 177.859 607.877 177.156C606.471 176.454 605.374 175.399 604.587 173.993C603.828 172.587 603.448 170.83 603.448 168.721V155.857H606.443V168.384C606.443 170.746 607.019 172.531 608.172 173.74C609.353 174.921 610.998 175.512 613.107 175.512C614.653 175.512 615.989 175.202 617.113 174.584C618.266 173.937 619.138 173.009 619.728 171.8C620.347 170.591 620.656 169.143 620.656 167.456V155.857H623.651V178H620.783V171.927L621.247 173.023C620.544 174.654 619.447 175.933 617.957 176.861C616.495 177.761 614.78 178.211 612.811 178.211ZM631.996 178V155.857H634.864V161.889L634.569 160.834C635.188 159.147 636.228 157.868 637.69 156.996C639.152 156.096 640.966 155.647 643.131 155.647V158.557C643.018 158.557 642.906 158.557 642.793 158.557C642.681 158.529 642.569 158.515 642.456 158.515C640.122 158.515 638.295 159.232 636.973 160.666C635.652 162.071 634.991 164.082 634.991 166.697V178H631.996ZM664.342 161.214H679.526V164.799H664.342V161.214ZM664.722 174.331H681.93V178H660.504V148.477H681.339V152.146H664.722V174.331ZM684.427 178L694.043 165.516L694.001 167.582L684.848 155.647H689.361L696.363 164.841H694.633L701.635 155.647H706.063L696.784 167.667L696.826 165.516L706.527 178H701.93L694.549 168.215L696.194 168.468L688.94 178H684.427ZM722.797 178.253C720.941 178.253 719.24 177.831 717.694 176.988C716.175 176.116 714.952 174.837 714.024 173.15C713.124 171.463 712.675 169.354 712.675 166.823C712.675 164.293 713.11 162.184 713.982 160.497C714.882 158.81 716.091 157.545 717.609 156.701C719.156 155.857 720.885 155.436 722.797 155.436C724.99 155.436 726.93 155.914 728.617 156.87C730.304 157.826 731.64 159.161 732.624 160.876C733.608 162.563 734.1 164.546 734.1 166.823C734.1 169.101 733.608 171.097 732.624 172.812C731.64 174.527 730.304 175.863 728.617 176.819C726.93 177.775 724.99 178.253 722.797 178.253ZM710.945 186.182V155.647H714.826V161.678L714.572 166.865L714.994 172.053V186.182H710.945ZM722.459 174.71C723.893 174.71 725.173 174.387 726.297 173.74C727.45 173.093 728.35 172.18 728.997 170.999C729.672 169.79 730.009 168.398 730.009 166.823C730.009 165.221 729.672 163.843 728.997 162.69C728.35 161.509 727.45 160.595 726.297 159.949C725.173 159.302 723.893 158.979 722.459 158.979C721.054 158.979 719.774 159.302 718.621 159.949C717.497 160.595 716.597 161.509 715.922 162.69C715.275 163.843 714.952 165.221 714.952 166.823C714.952 168.398 715.275 169.79 715.922 170.999C716.597 172.18 717.497 173.093 718.621 173.74C719.774 174.387 721.054 174.71 722.459 174.71ZM749.648 178.253C747.258 178.253 745.149 177.761 743.322 176.777C741.522 175.793 740.116 174.443 739.104 172.728C738.12 171.013 737.628 169.045 737.628 166.823C737.628 164.602 738.106 162.634 739.062 160.919C740.046 159.203 741.381 157.868 743.068 156.912C744.784 155.928 746.71 155.436 748.847 155.436C751.012 155.436 752.924 155.914 754.583 156.87C756.242 157.826 757.535 159.175 758.463 160.919C759.419 162.634 759.897 164.644 759.897 166.95C759.897 167.119 759.883 167.315 759.855 167.54C759.855 167.765 759.841 167.976 759.812 168.173H740.791V165.263H757.704L756.059 166.275C756.087 164.841 755.792 163.562 755.173 162.437C754.554 161.312 753.697 160.441 752.6 159.822C751.532 159.175 750.281 158.852 748.847 158.852C747.441 158.852 746.19 159.175 745.093 159.822C743.996 160.441 743.139 161.326 742.52 162.479C741.902 163.604 741.592 164.897 741.592 166.359V167.034C741.592 168.524 741.93 169.86 742.605 171.041C743.307 172.194 744.278 173.093 745.515 173.74C746.752 174.387 748.172 174.71 749.775 174.71C751.096 174.71 752.291 174.485 753.36 174.035C754.456 173.586 755.412 172.911 756.227 172.011L758.463 174.626C757.451 175.807 756.185 176.707 754.667 177.325C753.177 177.944 751.504 178.253 749.648 178.253ZM765.519 178V155.647H769.399V161.72L769.02 160.202C769.638 158.655 770.679 157.474 772.141 156.659C773.603 155.843 775.402 155.436 777.539 155.436V159.358C777.371 159.33 777.202 159.316 777.033 159.316C776.893 159.316 776.752 159.316 776.611 159.316C774.446 159.316 772.731 159.963 771.466 161.256C770.201 162.549 769.568 164.419 769.568 166.865V178H765.519ZM791.112 178.253C788.862 178.253 787.119 177.649 785.882 176.439C784.645 175.23 784.026 173.501 784.026 171.252V150.754H788.075V171.083C788.075 172.292 788.37 173.22 788.961 173.867C789.579 174.513 790.451 174.837 791.576 174.837C792.841 174.837 793.895 174.485 794.739 173.782L796.004 176.693C795.386 177.227 794.641 177.62 793.769 177.873C792.925 178.127 792.04 178.253 791.112 178.253ZM780.23 158.979V155.647H794.486V158.979H780.23ZM800.899 178V155.647H804.948V178H800.899ZM802.924 151.345C802.137 151.345 801.476 151.092 800.942 150.585C800.435 150.079 800.182 149.461 800.182 148.73C800.182 147.971 800.435 147.338 800.942 146.832C801.476 146.326 802.137 146.073 802.924 146.073C803.711 146.073 804.358 146.326 804.864 146.832C805.398 147.31 805.665 147.914 805.665 148.645C805.665 149.404 805.412 150.051 804.906 150.585C804.4 151.092 803.739 151.345 802.924 151.345ZM819.09 178.253C817.234 178.253 815.463 178 813.776 177.494C812.117 176.988 810.809 176.369 809.853 175.638L811.54 172.433C812.496 173.079 813.677 173.628 815.083 174.078C816.489 174.527 817.923 174.752 819.385 174.752C821.269 174.752 822.619 174.485 823.434 173.951C824.278 173.417 824.699 172.672 824.699 171.716C824.699 171.013 824.446 170.465 823.94 170.071C823.434 169.677 822.759 169.382 821.916 169.185C821.1 168.988 820.186 168.82 819.174 168.679C818.162 168.51 817.15 168.314 816.138 168.089C815.125 167.836 814.197 167.498 813.354 167.076C812.51 166.626 811.836 166.022 811.329 165.263C810.823 164.475 810.57 163.435 810.57 162.142C810.57 160.792 810.95 159.611 811.709 158.599C812.468 157.587 813.537 156.813 814.914 156.279C816.32 155.717 817.979 155.436 819.891 155.436C821.353 155.436 822.829 155.618 824.32 155.984C825.838 156.321 827.075 156.813 828.031 157.46L826.302 160.666C825.29 159.991 824.235 159.527 823.139 159.274C822.042 159.021 820.946 158.894 819.849 158.894C818.078 158.894 816.756 159.189 815.884 159.78C815.013 160.342 814.577 161.073 814.577 161.973C814.577 162.732 814.83 163.323 815.336 163.744C815.87 164.138 816.545 164.447 817.361 164.672C818.204 164.897 819.132 165.094 820.144 165.263C821.157 165.403 822.169 165.6 823.181 165.853C824.193 166.078 825.107 166.402 825.922 166.823C826.766 167.245 827.441 167.836 827.947 168.595C828.481 169.354 828.748 170.366 828.748 171.631C828.748 172.981 828.355 174.148 827.567 175.132C826.78 176.116 825.669 176.889 824.235 177.452C822.801 177.986 821.086 178.253 819.09 178.253ZM843.762 178.253C841.372 178.253 839.263 177.761 837.436 176.777C835.636 175.793 834.23 174.443 833.218 172.728C832.234 171.013 831.742 169.045 831.742 166.823C831.742 164.602 832.22 162.634 833.176 160.919C834.16 159.203 835.495 157.868 837.183 156.912C838.898 155.928 840.824 155.436 842.961 155.436C845.126 155.436 847.038 155.914 848.697 156.87C850.356 157.826 851.649 159.175 852.577 160.919C853.533 162.634 854.011 164.644 854.011 166.95C854.011 167.119 853.997 167.315 853.969 167.54C853.969 167.765 853.955 167.976 853.926 168.173H834.905V165.263H851.818L850.173 166.275C850.201 164.841 849.906 163.562 849.287 162.437C848.669 161.312 847.811 160.441 846.714 159.822C845.646 159.175 844.395 158.852 842.961 158.852C841.555 158.852 840.304 159.175 839.207 159.822C838.11 160.441 837.253 161.326 836.634 162.479C836.016 163.604 835.706 164.897 835.706 166.359V167.034C835.706 168.524 836.044 169.86 836.719 171.041C837.422 172.194 838.392 173.093 839.629 173.74C840.866 174.387 842.286 174.71 843.889 174.71C845.21 174.71 846.405 174.485 847.474 174.035C848.57 173.586 849.526 172.911 850.341 172.011L852.577 174.626C851.565 175.807 850.299 176.707 848.781 177.325C847.291 177.944 845.618 178.253 843.762 178.253Z" fill="white"/>
</svg>
